<mxfile host="app.diagrams.net" modified="2021-07-14T13:23:33.961Z" agent="5.0 (Windows NT 10.0; Win64; x64) AppleWebKit/537.36 (KHTML, like Gecko) Chrome/91.0.4472.124 Safari/537.36" etag="6nQvK3NAE9Oe-YmmuvOE" version="14.8.6" type="github">
  <diagram id="6UnznHqYo7LBIeetHzAm" name="Page-1">
    <mxGraphModel dx="1196" dy="626" grid="1" gridSize="10" guides="1" tooltips="1" connect="1" arrows="1" fold="1" page="1" pageScale="1" pageWidth="827" pageHeight="1169" math="0" shadow="0">
      <root>
        <mxCell id="0" />
        <mxCell id="1" parent="0" />
      </root>
    </mxGraphModel>
  </diagram>
</mxfile>
